# Blender 3.6.0
# www.blender.org
mtllib cruz.mtl
o Cube.004
v -1.000000 4.000000 3.000000
v -1.000000 6.000000 3.000000
v 1.000000 4.000000 3.000000
v 1.000000 6.000000 3.000000
v 1.000000 4.000000 1.000000
v -1.000000 8.000000 1.000000
v -1.000000 8.000000 -1.000000
v 1.000000 8.000000 1.000000
v 1.000000 8.000000 -1.000000
v -1.000000 6.000000 1.000000
v 1.000000 6.000000 1.000000
v 1.000000 4.000000 -1.000000
v -1.000000 4.000000 1.000000
v -1.000000 2.000000 -1.000000
v -1.000000 4.000000 -1.000000
v -1.000000 0.000000 1.000000
v -1.000000 2.000000 1.000000
v -1.000000 0.000000 -1.000000
v 1.000000 0.000000 1.000000
v 1.000000 2.000000 1.000000
v 1.000000 0.000000 -1.000000
v 1.000000 2.000000 -1.000000
v -1.000000 6.000000 -1.000000
v -1.000000 4.000000 -3.000000
v -1.000000 6.000000 -3.000000
v 1.000000 6.000000 -1.000000
v 1.000000 4.000000 -3.000000
v 1.000000 6.000000 -3.000000
vn -1.0000 -0.0000 -0.0000
vn -0.0000 -0.0000 -1.0000
vn 1.0000 -0.0000 -0.0000
vn -0.0000 -0.0000 1.0000
vn -0.0000 -1.0000 -0.0000
vn -0.0000 1.0000 -0.0000
vt 0.625000 0.000000
vt 0.375000 0.250000
vt 0.375000 0.000000
vt 0.625000 0.250000
vt 0.375000 0.500000
vt 0.625000 0.500000
vt 0.375000 0.750000
vt 0.625000 0.750000
vt 0.375000 1.000000
vt 0.125000 0.750000
vt 0.125000 0.500000
vt 0.875000 0.500000
vt 0.625000 1.000000
vt 0.875000 0.750000
vt 0.000000 0.000000
s 0
f 2/1/1 13/2/1 1/3/1
f 10/4/2 5/5/2 13/2/2
f 11/6/3 3/7/3 5/5/3
f 4/8/4 1/9/4 3/7/4
f 5/5/5 1/10/5 13/11/5
f 10/12/6 4/8/6 11/6/6
f 2/1/1 10/4/1 13/2/1
f 10/4/2 11/6/2 5/5/2
f 11/6/3 4/8/3 3/7/3
f 4/8/4 2/13/4 1/9/4
f 5/5/5 3/7/5 1/10/5
f 10/12/6 2/14/6 4/8/6
f 6/1/1 23/2/1 10/3/1
f 7/4/2 26/5/2 23/2/2
f 9/6/3 11/7/3 26/5/3
f 8/8/4 10/9/4 11/7/4
f 26/5/5 10/10/5 23/11/5
f 7/12/6 8/8/6 9/6/6
f 6/1/1 7/4/1 23/2/1
f 7/4/2 9/6/2 26/5/2
f 9/6/3 8/8/3 11/7/3
f 8/8/4 6/13/4 10/9/4
f 26/5/5 11/7/5 10/10/5
f 7/12/6 6/14/6 8/8/6
f 10/1/1 15/2/1 13/3/1
f 23/4/2 12/5/2 15/2/2
f 26/6/3 5/7/3 12/5/3
f 11/8/4 13/9/4 5/7/4
f 12/5/5 13/10/5 15/11/5
f 23/12/6 11/8/6 26/6/6
f 10/1/1 23/4/1 15/2/1
f 23/4/2 26/6/2 12/5/2
f 26/6/3 11/8/3 5/7/3
f 11/8/4 10/13/4 13/9/4
f 12/5/5 5/7/5 13/10/5
f 23/12/6 10/14/6 11/8/6
f 13/1/1 14/2/1 17/3/1
f 15/4/2 22/5/2 14/2/2
f 12/6/3 20/7/3 22/5/3
f 5/8/4 17/9/4 20/7/4
f 22/5/5 17/10/5 14/11/5
f 15/12/6 5/8/6 12/6/6
f 13/1/1 15/4/1 14/2/1
f 15/4/2 12/6/2 22/5/2
f 12/6/3 5/8/3 20/7/3
f 5/8/4 13/13/4 17/9/4
f 22/5/5 20/7/5 17/10/5
f 15/12/6 13/14/6 5/8/6
f 17/1/1 18/2/1 16/3/1
f 14/4/2 21/5/2 18/2/2
f 22/6/3 19/7/3 21/5/3
f 20/8/4 16/9/4 19/7/4
f 21/5/5 16/10/5 18/11/5
f 14/12/6 20/8/6 22/6/6
f 17/1/1 14/4/1 18/2/1
f 14/4/2 22/6/2 21/5/2
f 22/6/3 20/8/3 19/7/3
f 20/8/4 17/13/4 16/9/4
f 21/5/5 19/7/5 16/10/5
f 14/12/6 17/14/6 20/8/6
f 23/1/1 24/2/1 15/3/1
f 25/4/2 27/5/2 24/2/2
f 28/6/3 12/7/3 27/5/3
f 26/8/4 15/9/4 12/7/4
f 27/5/5 15/10/5 24/11/5
f 25/12/6 26/8/6 28/6/6
f 23/1/1 25/4/1 24/2/1
f 25/4/2 28/6/2 27/5/2
f 28/6/3 26/8/3 12/7/3
f 26/8/4 23/13/4 15/9/4
f 27/5/5 12/7/5 15/10/5
f 25/12/6 23/14/6 26/8/6
f 11/15/2 10/15/2 6/15/2
